<svg width="1051" height="192" viewBox="0 0 1051 192" fill="none" xmlns="http://www.w3.org/2000/svg">
<mask id="path-1-outside-1_99_2" maskUnits="userSpaceOnUse" x="16" y="0" width="1023" height="192" fill="black">
<rect fill="white" x="16" width="1023" height="192"/>
<path d="M17.408 187V7.79999H85.504C100.011 7.79999 112.043 10.2747 121.6 15.224C131.157 20.1733 138.24 26.9147 142.848 35.448C147.627 43.8107 150.016 53.368 150.016 64.12C150.016 74.0187 147.712 83.2347 143.104 91.768C138.667 100.131 131.669 106.957 122.112 112.248C112.555 117.539 100.352 120.184 85.504 120.184H53.248V187H17.408ZM53.248 91.256H83.2C93.952 91.256 101.632 88.7813 106.24 83.832C111.019 78.8827 113.408 72.312 113.408 64.12C113.408 55.5867 111.019 48.9307 106.24 44.152C101.632 39.3733 93.952 36.984 83.2 36.984H53.248V91.256ZM427.806 187V57.976H459.55L462.878 81.784C466.121 76.152 470.046 71.3733 474.654 67.448C479.262 63.5227 484.638 60.4507 490.782 58.232C496.926 56.0133 503.582 54.904 510.75 54.904V92.792H498.718C493.598 92.792 488.819 93.3893 484.382 94.584C480.115 95.7787 476.361 97.7413 473.118 100.472C470.046 103.032 467.657 106.616 465.95 111.224C464.414 115.661 463.646 121.293 463.646 128.12V187H427.806ZM571.956 187C562.74 187 554.633 185.549 547.636 182.648C540.809 179.747 535.519 174.968 531.764 168.312C528.009 161.656 526.132 152.611 526.132 141.176V87.928H503.86V57.976H526.132L529.972 22.392H561.972V57.976H595.508V87.928H561.972V141.432C561.972 147.064 563.167 150.989 565.556 153.208C568.116 155.427 572.383 156.536 578.356 156.536H595.252V187H571.956ZM609.978 187V47.224C609.978 36.3013 611.855 27.5973 615.61 21.112C619.365 14.6267 624.57 9.93332 631.226 7.032C638.053 4.13066 646.074 2.67999 655.29 2.67999H671.418V33.144H660.922C655.461 33.144 651.535 34.2533 649.146 36.472C646.927 38.52 645.818 42.104 645.818 47.224V187H609.978ZM592.57 87.928V57.976H673.21V87.928H592.57ZM735.8 190.072C723.512 190.072 712.419 187.256 702.52 181.624C692.621 175.821 684.771 167.8 678.968 157.56C673.336 147.32 670.52 135.715 670.52 122.744C670.52 109.432 673.336 97.656 678.968 87.416C684.771 77.176 692.621 69.24 702.52 63.608C712.419 57.8053 723.597 54.904 736.056 54.904C748.515 54.904 759.693 57.8053 769.592 63.608C779.491 69.24 787.256 77.176 792.888 87.416C798.691 97.4853 801.592 109.176 801.592 122.488C801.592 135.8 798.691 147.576 792.888 157.816C787.085 167.885 779.235 175.821 769.336 181.624C759.608 187.256 748.429 190.072 735.8 190.072ZM735.8 159.096C741.432 159.096 746.381 157.731 750.648 155C754.915 152.269 758.328 148.173 760.888 142.712C763.619 137.251 764.984 130.509 764.984 122.488C764.984 114.467 763.704 107.725 761.144 102.264C758.584 96.8027 755.085 92.7067 750.648 89.976C746.381 87.2453 741.517 85.88 736.056 85.88C730.765 85.88 725.901 87.2453 721.464 89.976C717.027 92.7067 713.528 96.8027 710.968 102.264C708.408 107.725 707.128 114.467 707.128 122.488C707.128 130.509 708.408 137.251 710.968 142.712C713.528 148.173 716.941 152.269 721.208 155C725.645 157.731 730.509 159.096 735.8 159.096ZM810.886 187V2.67999H846.726V187H810.886ZM860.674 187V57.976H896.514V187H860.674ZM878.594 41.336C872.109 41.336 866.818 39.4587 862.722 35.704C858.626 31.7787 856.578 27 856.578 21.368C856.578 15.5653 858.626 10.7867 862.722 7.032C866.818 3.27733 872.109 1.39999 878.594 1.39999C885.079 1.39999 890.37 3.27733 894.466 7.032C898.562 10.7867 900.61 15.5653 900.61 21.368C900.61 27 898.562 31.7787 894.466 35.704C890.37 39.4587 885.079 41.336 878.594 41.336ZM971.61 190.072C959.322 190.072 948.229 187.256 938.33 181.624C928.431 175.821 920.581 167.8 914.778 157.56C909.146 147.32 906.33 135.715 906.33 122.744C906.33 109.432 909.146 97.656 914.778 87.416C920.581 77.176 928.431 69.24 938.33 63.608C948.229 57.8053 959.407 54.904 971.866 54.904C984.325 54.904 995.503 57.8053 1005.4 63.608C1015.3 69.24 1023.07 77.176 1028.7 87.416C1034.5 97.4853 1037.4 109.176 1037.4 122.488C1037.4 135.8 1034.5 147.576 1028.7 157.816C1022.9 167.885 1015.04 175.821 1005.15 181.624C995.418 187.256 984.239 190.072 971.61 190.072ZM971.61 159.096C977.242 159.096 982.191 157.731 986.458 155C990.725 152.269 994.138 148.173 996.698 142.712C999.429 137.251 1000.79 130.509 1000.79 122.488C1000.79 114.467 999.514 107.725 996.954 102.264C994.394 96.8027 990.895 92.7067 986.458 89.976C982.191 87.2453 977.327 85.88 971.866 85.88C966.575 85.88 961.711 87.2453 957.274 89.976C952.837 92.7067 949.338 96.8027 946.778 102.264C944.218 107.725 942.938 114.467 942.938 122.488C942.938 130.509 944.218 137.251 946.778 142.712C949.338 148.173 952.751 152.269 957.018 155C961.455 157.731 966.319 159.096 971.61 159.096Z"/>
</mask>
<path d="M17.408 187V7.79999H85.504C100.011 7.79999 112.043 10.2747 121.6 15.224C131.157 20.1733 138.24 26.9147 142.848 35.448C147.627 43.8107 150.016 53.368 150.016 64.12C150.016 74.0187 147.712 83.2347 143.104 91.768C138.667 100.131 131.669 106.957 122.112 112.248C112.555 117.539 100.352 120.184 85.504 120.184H53.248V187H17.408ZM53.248 91.256H83.2C93.952 91.256 101.632 88.7813 106.24 83.832C111.019 78.8827 113.408 72.312 113.408 64.12C113.408 55.5867 111.019 48.9307 106.24 44.152C101.632 39.3733 93.952 36.984 83.2 36.984H53.248V91.256ZM427.806 187V57.976H459.55L462.878 81.784C466.121 76.152 470.046 71.3733 474.654 67.448C479.262 63.5227 484.638 60.4507 490.782 58.232C496.926 56.0133 503.582 54.904 510.75 54.904V92.792H498.718C493.598 92.792 488.819 93.3893 484.382 94.584C480.115 95.7787 476.361 97.7413 473.118 100.472C470.046 103.032 467.657 106.616 465.95 111.224C464.414 115.661 463.646 121.293 463.646 128.12V187H427.806ZM571.956 187C562.74 187 554.633 185.549 547.636 182.648C540.809 179.747 535.519 174.968 531.764 168.312C528.009 161.656 526.132 152.611 526.132 141.176V87.928H503.86V57.976H526.132L529.972 22.392H561.972V57.976H595.508V87.928H561.972V141.432C561.972 147.064 563.167 150.989 565.556 153.208C568.116 155.427 572.383 156.536 578.356 156.536H595.252V187H571.956ZM609.978 187V47.224C609.978 36.3013 611.855 27.5973 615.61 21.112C619.365 14.6267 624.57 9.93332 631.226 7.032C638.053 4.13066 646.074 2.67999 655.29 2.67999H671.418V33.144H660.922C655.461 33.144 651.535 34.2533 649.146 36.472C646.927 38.52 645.818 42.104 645.818 47.224V187H609.978ZM592.57 87.928V57.976H673.21V87.928H592.57ZM735.8 190.072C723.512 190.072 712.419 187.256 702.52 181.624C692.621 175.821 684.771 167.8 678.968 157.56C673.336 147.32 670.52 135.715 670.52 122.744C670.52 109.432 673.336 97.656 678.968 87.416C684.771 77.176 692.621 69.24 702.52 63.608C712.419 57.8053 723.597 54.904 736.056 54.904C748.515 54.904 759.693 57.8053 769.592 63.608C779.491 69.24 787.256 77.176 792.888 87.416C798.691 97.4853 801.592 109.176 801.592 122.488C801.592 135.8 798.691 147.576 792.888 157.816C787.085 167.885 779.235 175.821 769.336 181.624C759.608 187.256 748.429 190.072 735.8 190.072ZM735.8 159.096C741.432 159.096 746.381 157.731 750.648 155C754.915 152.269 758.328 148.173 760.888 142.712C763.619 137.251 764.984 130.509 764.984 122.488C764.984 114.467 763.704 107.725 761.144 102.264C758.584 96.8027 755.085 92.7067 750.648 89.976C746.381 87.2453 741.517 85.88 736.056 85.88C730.765 85.88 725.901 87.2453 721.464 89.976C717.027 92.7067 713.528 96.8027 710.968 102.264C708.408 107.725 707.128 114.467 707.128 122.488C707.128 130.509 708.408 137.251 710.968 142.712C713.528 148.173 716.941 152.269 721.208 155C725.645 157.731 730.509 159.096 735.8 159.096ZM810.886 187V2.67999H846.726V187H810.886ZM860.674 187V57.976H896.514V187H860.674ZM878.594 41.336C872.109 41.336 866.818 39.4587 862.722 35.704C858.626 31.7787 856.578 27 856.578 21.368C856.578 15.5653 858.626 10.7867 862.722 7.032C866.818 3.27733 872.109 1.39999 878.594 1.39999C885.079 1.39999 890.37 3.27733 894.466 7.032C898.562 10.7867 900.61 15.5653 900.61 21.368C900.61 27 898.562 31.7787 894.466 35.704C890.37 39.4587 885.079 41.336 878.594 41.336ZM971.61 190.072C959.322 190.072 948.229 187.256 938.33 181.624C928.431 175.821 920.581 167.8 914.778 157.56C909.146 147.32 906.33 135.715 906.33 122.744C906.33 109.432 909.146 97.656 914.778 87.416C920.581 77.176 928.431 69.24 938.33 63.608C948.229 57.8053 959.407 54.904 971.866 54.904C984.325 54.904 995.503 57.8053 1005.4 63.608C1015.3 69.24 1023.07 77.176 1028.7 87.416C1034.5 97.4853 1037.4 109.176 1037.4 122.488C1037.4 135.8 1034.5 147.576 1028.7 157.816C1022.9 167.885 1015.04 175.821 1005.15 181.624C995.418 187.256 984.239 190.072 971.61 190.072ZM971.61 159.096C977.242 159.096 982.191 157.731 986.458 155C990.725 152.269 994.138 148.173 996.698 142.712C999.429 137.251 1000.79 130.509 1000.79 122.488C1000.79 114.467 999.514 107.725 996.954 102.264C994.394 96.8027 990.895 92.7067 986.458 89.976C982.191 87.2453 977.327 85.88 971.866 85.88C966.575 85.88 961.711 87.2453 957.274 89.976C952.837 92.7067 949.338 96.8027 946.778 102.264C944.218 107.725 942.938 114.467 942.938 122.488C942.938 130.509 944.218 137.251 946.778 142.712C949.338 148.173 952.751 152.269 957.018 155C961.455 157.731 966.319 159.096 971.61 159.096Z" fill="white"/>
<path d="M17.408 187H16.408V188H17.408V187ZM17.408 7.79999V6.79999H16.408V7.79999H17.408ZM121.6 15.224L121.14 16.112L121.14 16.112L121.6 15.224ZM142.848 35.448L141.968 35.9231L141.974 35.9337L141.98 35.9441L142.848 35.448ZM143.104 91.768L142.224 91.2928L142.221 91.2993L143.104 91.768ZM122.112 112.248L121.628 111.373L121.628 111.373L122.112 112.248ZM53.248 120.184V119.184H52.248V120.184H53.248ZM53.248 187V188H54.248V187H53.248ZM53.248 91.256H52.248V92.256H53.248V91.256ZM106.24 83.832L105.521 83.1374L105.514 83.1439L105.508 83.1506L106.24 83.832ZM106.24 44.152L105.52 44.8461L105.526 44.8527L105.533 44.8591L106.24 44.152ZM53.248 36.984V35.984H52.248V36.984H53.248ZM17.408 187H18.408V7.79999H17.408H16.408V187H17.408ZM17.408 7.79999V8.79999H85.504V7.79999V6.79999H17.408V7.79999ZM85.504 7.79999V8.79999C99.9038 8.79999 111.766 11.2573 121.14 16.112L121.6 15.224L122.06 14.336C112.32 9.292 100.118 6.79999 85.504 6.79999V7.79999ZM121.6 15.224L121.14 16.112C130.54 20.9796 137.466 27.5856 141.968 35.9231L142.848 35.448L143.728 34.9728C139.014 26.2437 131.775 19.3671 122.06 14.336L121.6 15.224ZM142.848 35.448L141.98 35.9441C146.662 44.1387 149.016 53.5213 149.016 64.12H150.016H151.016C151.016 53.2147 148.591 43.4826 143.716 34.9519L142.848 35.448ZM150.016 64.12H149.016C149.016 73.8563 146.752 82.9086 142.224 91.2928L143.104 91.768L143.984 92.2431C148.672 83.5607 151.016 74.181 151.016 64.12H150.016ZM143.104 91.768L142.221 91.2993C137.888 99.4656 131.042 106.161 121.628 111.373L122.112 112.248L122.596 113.123C132.296 107.753 139.446 100.796 143.987 92.2367L143.104 91.768ZM122.112 112.248L121.628 111.373C112.262 116.557 100.241 119.184 85.504 119.184V120.184V121.184C100.463 121.184 112.847 118.52 122.596 113.123L122.112 112.248ZM85.504 120.184V119.184H53.248V120.184V121.184H85.504V120.184ZM53.248 120.184H52.248V187H53.248H54.248V120.184H53.248ZM53.248 187V186H17.408V187V188H53.248V187ZM53.248 91.256V92.256H83.2V91.256V90.256H53.248V91.256ZM83.2 91.256V92.256C94.0698 92.256 102.088 89.759 106.972 84.5134L106.24 83.832L105.508 83.1506C101.176 87.8036 93.8342 90.256 83.2 90.256V91.256ZM106.24 83.832L106.959 84.5266C111.952 79.356 114.408 72.5184 114.408 64.12H113.408H112.408C112.408 72.1056 110.086 78.4093 105.521 83.1374L106.24 83.832ZM113.408 64.12H114.408C114.408 55.3948 111.959 48.4573 106.947 43.4449L106.24 44.152L105.533 44.8591C110.078 49.4041 112.408 55.7785 112.408 64.12H113.408ZM106.24 44.152L106.96 43.4579C102.075 38.3918 94.0616 35.984 83.2 35.984V36.984V37.984C93.8424 37.984 101.189 40.3549 105.52 44.8461L106.24 44.152ZM83.2 36.984V35.984H53.248V36.984V37.984H83.2V36.984ZM53.248 36.984H52.248V91.256H53.248H54.248V36.984H53.248ZM427.806 187H426.806V188H427.806V187ZM427.806 57.976V56.976H426.806V57.976H427.806ZM459.55 57.976L460.54 57.8376L460.42 56.976H459.55V57.976ZM462.878 81.784L461.888 81.9224L462.291 84.8078L463.745 82.283L462.878 81.784ZM474.654 67.448L475.302 68.2092L475.302 68.2092L474.654 67.448ZM490.782 58.232L490.442 57.2914L490.442 57.2914L490.782 58.232ZM510.75 54.904H511.75V53.904H510.75V54.904ZM510.75 92.792V93.792H511.75V92.792H510.75ZM484.382 94.584L484.122 93.6183L484.112 93.621L484.382 94.584ZM473.118 100.472L473.758 101.24L473.762 101.237L473.118 100.472ZM465.95 111.224L465.012 110.877L465.009 110.887L465.005 110.897L465.95 111.224ZM463.646 187V188H464.646V187H463.646ZM427.806 187H428.806V57.976H427.806H426.806V187H427.806ZM427.806 57.976V58.976H459.55V57.976V56.976H427.806V57.976ZM459.55 57.976L458.56 58.1144L461.888 81.9224L462.878 81.784L463.868 81.6456L460.54 57.8376L459.55 57.976ZM462.878 81.784L463.745 82.283C466.934 76.7429 470.788 72.055 475.302 68.2092L474.654 67.448L474.006 66.6868C469.304 70.6917 465.307 75.5611 462.011 81.285L462.878 81.784ZM474.654 67.448L475.302 68.2092C479.812 64.3677 485.082 61.3537 491.122 59.1725L490.782 58.232L490.442 57.2914C484.194 59.5476 478.712 62.6777 474.006 66.6868L474.654 67.448ZM490.782 58.232L491.122 59.1725C497.147 56.9969 503.687 55.904 510.75 55.904V54.904V53.904C503.477 53.904 496.705 55.0298 490.442 57.2914L490.782 58.232ZM510.75 54.904H509.75V92.792H510.75H511.75V54.904H510.75ZM510.75 92.792V91.792H498.718V92.792V93.792H510.75V92.792ZM498.718 92.792V91.792C493.52 91.792 488.653 92.3985 484.122 93.6184L484.382 94.584L484.642 95.5496C488.986 94.3802 493.676 93.792 498.718 93.792V92.792ZM484.382 94.584L484.112 93.621C479.715 94.8524 475.831 96.8803 472.474 99.7071L473.118 100.472L473.762 101.237C476.891 98.6024 480.516 96.7049 484.652 95.547L484.382 94.584ZM473.118 100.472L472.478 99.7038C469.244 102.399 466.766 106.142 465.012 110.877L465.95 111.224L466.888 111.571C468.548 107.09 470.848 103.665 473.758 101.24L473.118 100.472ZM465.95 111.224L465.005 110.897C463.42 115.475 462.646 121.228 462.646 128.12H463.646H464.646C464.646 121.359 465.408 115.847 466.895 111.551L465.95 111.224ZM463.646 128.12H462.646V187H463.646H464.646V128.12H463.646ZM463.646 187V186H427.806V187V188H463.646V187ZM547.636 182.648L547.245 183.568L547.253 183.572L547.636 182.648ZM531.764 168.312L532.635 167.821L532.635 167.821L531.764 168.312ZM526.132 87.928H527.132V86.928H526.132V87.928ZM503.86 87.928H502.86V88.928H503.86V87.928ZM503.86 57.976V56.976H502.86V57.976H503.86ZM526.132 57.976V58.976H527.03L527.126 58.0833L526.132 57.976ZM529.972 22.392V21.392H529.074L528.978 22.2847L529.972 22.392ZM561.972 22.392H562.972V21.392H561.972V22.392ZM561.972 57.976H560.972V58.976H561.972V57.976ZM595.508 57.976H596.508V56.976H595.508V57.976ZM595.508 87.928V88.928H596.508V87.928H595.508ZM561.972 87.928V86.928H560.972V87.928H561.972ZM565.556 153.208L564.876 153.941L564.888 153.952L564.901 153.964L565.556 153.208ZM595.252 156.536H596.252V155.536H595.252V156.536ZM595.252 187V188H596.252V187H595.252ZM571.956 187V186C562.844 186 554.872 184.566 548.019 181.724L547.636 182.648L547.253 183.572C554.395 186.533 562.636 188 571.956 188V187ZM547.636 182.648L548.027 181.728C541.41 178.915 536.285 174.291 532.635 167.821L531.764 168.312L530.893 168.803C534.752 175.645 540.209 180.578 547.245 183.568L547.636 182.648ZM531.764 168.312L532.635 167.821C528.997 161.371 527.132 152.518 527.132 141.176H526.132H525.132C525.132 152.704 527.022 161.941 530.893 168.803L531.764 168.312ZM526.132 141.176H527.132V87.928H526.132H525.132V141.176H526.132ZM526.132 87.928V86.928H503.86V87.928V88.928H526.132V87.928ZM503.86 87.928H504.86V57.976H503.86H502.86V87.928H503.86ZM503.86 57.976V58.976H526.132V57.976V56.976H503.86V57.976ZM526.132 57.976L527.126 58.0833L530.966 22.4993L529.972 22.392L528.978 22.2847L525.138 57.8687L526.132 57.976ZM529.972 22.392V23.392H561.972V22.392V21.392H529.972V22.392ZM561.972 22.392H560.972V57.976H561.972H562.972V22.392H561.972ZM561.972 57.976V58.976H595.508V57.976V56.976H561.972V57.976ZM595.508 57.976H594.508V87.928H595.508H596.508V57.976H595.508ZM595.508 87.928V86.928H561.972V87.928V88.928H595.508V87.928ZM561.972 87.928H560.972V141.432H561.972H562.972V87.928H561.972ZM561.972 141.432H560.972C560.972 147.152 562.176 151.434 564.876 153.941L565.556 153.208L566.236 152.475C564.158 150.545 562.972 146.976 562.972 141.432H561.972ZM565.556 153.208L564.901 153.964C567.738 156.422 572.308 157.536 578.356 157.536V156.536V155.536C572.457 155.536 568.494 154.431 566.211 152.452L565.556 153.208ZM578.356 156.536V157.536H595.252V156.536V155.536H578.356V156.536ZM595.252 156.536H594.252V187H595.252H596.252V156.536H595.252ZM595.252 187V186H571.956V187V188H595.252V187ZM609.978 187H608.978V188H609.978V187ZM615.61 21.112L616.475 21.613L616.475 21.613L615.61 21.112ZM631.226 7.032L630.835 6.11163L630.826 6.1153L631.226 7.032ZM671.418 2.67999H672.418V1.67999H671.418V2.67999ZM671.418 33.144V34.144H672.418V33.144H671.418ZM649.146 36.472L649.824 37.2068L649.826 37.2048L649.146 36.472ZM645.818 187V188H646.818V187H645.818ZM592.57 87.928H591.57V88.928H592.57V87.928ZM592.57 57.976V56.976H591.57V57.976H592.57ZM673.21 57.976H674.21V56.976H673.21V57.976ZM673.21 87.928V88.928H674.21V87.928H673.21ZM609.978 187H610.978V47.224H609.978H608.978V187H609.978ZM609.978 47.224H610.978C610.978 36.4019 612.84 27.892 616.475 21.613L615.61 21.112L614.745 20.611C610.87 27.3027 608.978 36.2008 608.978 47.224H609.978ZM615.61 21.112L616.475 21.613C620.127 15.3061 625.172 10.7618 631.626 7.94869L631.226 7.032L630.826 6.1153C623.968 9.1048 618.603 13.9473 614.745 20.611L615.61 21.112ZM631.226 7.032L631.617 7.95233C638.294 5.11465 646.177 3.67999 655.29 3.67999V2.67999V1.67999C645.971 1.67999 637.811 3.14667 630.835 6.11167L631.226 7.032ZM655.29 2.67999V3.67999H671.418V2.67999V1.67999H655.29V2.67999ZM671.418 2.67999H670.418V33.144H671.418H672.418V2.67999H671.418ZM671.418 33.144V32.144H660.922V33.144V34.144H671.418V33.144ZM660.922 33.144V32.144C655.367 32.144 651.13 33.2648 648.466 35.7392L649.146 36.472L649.826 37.2048C651.94 35.2419 655.554 34.144 660.922 34.144V33.144ZM649.146 36.472L648.468 35.7372C645.939 38.0711 644.818 42.0093 644.818 47.224H645.818H646.818C646.818 42.1986 647.915 38.9689 649.824 37.2068L649.146 36.472ZM645.818 47.224H644.818V187H645.818H646.818V47.224H645.818ZM645.818 187V186H609.978V187V188H645.818V187ZM592.57 87.928H593.57V57.976H592.57H591.57V87.928H592.57ZM592.57 57.976V58.976H673.21V57.976V56.976H592.57V57.976ZM673.21 57.976H672.21V87.928H673.21H674.21V57.976H673.21ZM673.21 87.928V86.928H592.57V87.928V88.928H673.21V87.928ZM702.52 181.624L702.014 182.487L702.026 182.493L702.52 181.624ZM678.968 157.56L678.092 158.042L678.098 158.053L678.968 157.56ZM678.968 87.416L678.098 86.9229L678.092 86.9341L678.968 87.416ZM702.52 63.608L703.015 64.4772L703.026 64.4707L702.52 63.608ZM769.592 63.608L769.086 64.4708L769.098 64.4772L769.592 63.608ZM792.888 87.416L792.012 87.8979L792.017 87.9067L792.022 87.9153L792.888 87.416ZM792.888 157.816L793.754 158.315L793.758 158.309L792.888 157.816ZM769.336 181.624L769.837 182.489L769.842 182.487L769.336 181.624ZM750.648 155L750.109 154.158L750.109 154.158L750.648 155ZM760.888 142.712L759.994 142.265L759.988 142.276L759.983 142.288L760.888 142.712ZM761.144 102.264L760.239 102.688L760.239 102.688L761.144 102.264ZM750.648 89.976L750.109 90.8183L750.116 90.823L750.124 90.8277L750.648 89.976ZM721.464 89.976L721.988 90.8277L721.988 90.8277L721.464 89.976ZM710.968 102.264L710.063 101.84L710.063 101.84L710.968 102.264ZM721.208 155L720.669 155.842L720.676 155.847L720.684 155.852L721.208 155ZM735.8 190.072V189.072C723.671 189.072 712.751 186.294 703.015 180.755L702.52 181.624L702.026 182.493C712.087 188.218 723.353 191.072 735.8 191.072V190.072ZM702.52 181.624L703.026 180.761C693.283 175.05 685.556 167.158 679.838 157.067L678.968 157.56L678.098 158.053C683.985 168.442 691.96 176.593 702.014 182.487L702.52 181.624ZM678.968 157.56L679.844 157.078C674.302 147.001 671.52 135.565 671.52 122.744H670.52H669.52C669.52 135.864 672.37 147.639 678.092 158.042L678.968 157.56ZM670.52 122.744H671.52C671.52 109.577 674.304 97.9708 679.844 87.8979L678.968 87.416L678.092 86.9341C672.368 97.3412 669.52 109.287 669.52 122.744H670.52ZM678.968 87.416L679.838 87.909C685.555 77.8205 693.278 70.0169 703.015 64.4772L702.52 63.608L702.026 62.7388C691.965 68.4631 683.987 76.5315 678.098 86.923L678.968 87.416ZM702.52 63.608L703.026 64.4707C712.758 58.7656 723.759 55.904 736.056 55.904V54.904V53.904C723.435 53.904 712.079 56.8451 702.014 62.7453L702.52 63.608ZM736.056 54.904V55.904C748.353 55.904 759.354 58.7656 769.086 64.4707L769.592 63.608L770.098 62.7453C760.033 56.8451 748.677 53.904 736.056 53.904V54.904ZM769.592 63.608L769.098 64.4772C778.831 70.0153 786.466 77.8153 792.012 87.8979L792.888 87.416L793.764 86.9341C788.046 76.5367 780.15 68.4647 770.087 62.7388L769.592 63.608ZM792.888 87.416L792.022 87.9153C797.725 97.8118 800.592 109.325 800.592 122.488H801.592H802.592C802.592 109.027 799.657 97.1588 793.754 86.9167L792.888 87.416ZM801.592 122.488H800.592C800.592 135.65 797.725 147.252 792.018 157.323L792.888 157.816L793.758 158.309C799.657 147.9 802.592 135.95 802.592 122.488H801.592ZM792.888 157.816L792.022 157.317C786.304 167.238 778.577 175.048 768.83 180.761L769.336 181.624L769.842 182.487C779.892 176.595 787.866 168.533 793.754 158.315L792.888 157.816ZM769.336 181.624L768.835 180.759C759.277 186.292 748.276 189.072 735.8 189.072V190.072V191.072C748.583 191.072 759.939 188.22 769.837 182.489L769.336 181.624ZM735.8 159.096V160.096C741.601 160.096 746.742 158.687 751.187 155.842L750.648 155L750.109 154.158C746.021 156.774 741.263 158.096 735.8 158.096V159.096ZM750.648 155L751.187 155.842C755.641 152.992 759.169 148.736 761.793 143.136L760.888 142.712L759.983 142.288C757.487 147.611 754.188 151.547 750.109 154.158L750.648 155ZM760.888 142.712L761.782 143.159C764.601 137.522 765.984 130.618 765.984 122.488H764.984H763.984C763.984 130.401 762.637 136.979 759.994 142.265L760.888 142.712ZM764.984 122.488H765.984C765.984 114.366 764.689 107.47 762.049 101.84L761.144 102.264L760.239 102.688C762.719 107.981 763.984 114.567 763.984 122.488H764.984ZM761.144 102.264L762.049 101.84C759.42 96.2302 755.8 91.9725 751.172 89.1243L750.648 89.976L750.124 90.8277C754.37 93.4408 757.748 97.3751 760.239 102.688L761.144 102.264ZM750.648 89.976L751.187 89.1337C746.747 86.292 741.693 84.88 736.056 84.88V85.88V86.88C741.342 86.88 746.016 88.1987 750.109 90.8183L750.648 89.976ZM736.056 85.88V84.88C730.583 84.88 725.537 86.2951 720.94 89.1243L721.464 89.976L721.988 90.8277C726.265 88.1955 730.947 86.88 736.056 86.88V85.88ZM721.464 89.976L720.94 89.1243C716.312 91.9725 712.692 96.2302 710.063 101.84L710.968 102.264L711.873 102.688C714.364 97.3751 717.742 93.4408 721.988 90.8277L721.464 89.976ZM710.968 102.264L710.063 101.84C707.423 107.47 706.128 114.366 706.128 122.488H707.128H708.128C708.128 114.567 709.393 107.981 711.873 102.688L710.968 102.264ZM707.128 122.488H706.128C706.128 130.61 707.423 137.506 710.063 143.136L710.968 142.712L711.873 142.288C709.393 136.995 708.128 130.409 708.128 122.488H707.128ZM710.968 142.712L710.063 143.136C712.687 148.736 716.215 152.992 720.669 155.842L721.208 155L721.747 154.158C717.668 151.547 714.369 147.611 711.873 142.288L710.968 142.712ZM721.208 155L720.684 155.852C725.281 158.681 730.327 160.096 735.8 160.096V159.096V158.096C730.691 158.096 726.009 156.78 721.732 154.148L721.208 155ZM810.886 187H809.886V188H810.886V187ZM810.886 2.67999V1.67999H809.886V2.67999H810.886ZM846.726 2.67999H847.726V1.67999H846.726V2.67999ZM846.726 187V188H847.726V187H846.726ZM810.886 187H811.886V2.67999H810.886H809.886V187H810.886ZM810.886 2.67999V3.67999H846.726V2.67999V1.67999H810.886V2.67999ZM846.726 2.67999H845.726V187H846.726H847.726V2.67999H846.726ZM846.726 187V186H810.886V187V188H846.726V187ZM860.674 187H859.674V188H860.674V187ZM860.674 57.976V56.976H859.674V57.976H860.674ZM896.514 57.976H897.514V56.976H896.514V57.976ZM896.514 187V188H897.514V187H896.514ZM862.722 35.704L862.03 36.426L862.038 36.4337L862.046 36.4411L862.722 35.704ZM862.722 7.032L863.398 7.76915L863.398 7.76915L862.722 7.032ZM894.466 7.032L893.79 7.76915L893.79 7.76915L894.466 7.032ZM894.466 35.704L895.142 36.4411L895.15 36.4337L895.158 36.426L894.466 35.704ZM860.674 187H861.674V57.976H860.674H859.674V187H860.674ZM860.674 57.976V58.976H896.514V57.976V56.976H860.674V57.976ZM896.514 57.976H895.514V187H896.514H897.514V57.976H896.514ZM896.514 187V186H860.674V187V188H896.514V187ZM878.594 41.336V40.336C872.314 40.336 867.279 38.5246 863.398 34.9668L862.722 35.704L862.046 36.4411C866.357 40.3928 871.903 42.336 878.594 42.336V41.336ZM862.722 35.704L863.414 34.982C859.513 31.2437 857.578 26.7251 857.578 21.368H856.578H855.578C855.578 27.2748 857.739 32.3136 862.03 36.426L862.722 35.704ZM856.578 21.368H857.578C857.578 15.8316 859.518 11.3251 863.398 7.76915L862.722 7.032L862.046 6.29484C857.734 10.2482 855.578 15.2991 855.578 21.368H856.578ZM862.722 7.032L863.398 7.76915C867.279 4.21142 872.314 2.39999 878.594 2.39999V1.39999V0.399994C871.903 0.399994 866.357 2.34324 862.046 6.29484L862.722 7.032ZM878.594 1.39999V2.39999C884.874 2.39999 889.909 4.21142 893.79 7.76915L894.466 7.032L895.142 6.29484C890.831 2.34324 885.285 0.399994 878.594 0.399994V1.39999ZM894.466 7.032L893.79 7.76915C897.67 11.3251 899.61 15.8316 899.61 21.368H900.61H901.61C901.61 15.2991 899.454 10.2482 895.142 6.29484L894.466 7.032ZM900.61 21.368H899.61C899.61 26.7251 897.675 31.2437 893.774 34.982L894.466 35.704L895.158 36.426C899.449 32.3136 901.61 27.2748 901.61 21.368H900.61ZM894.466 35.704L893.79 34.9668C889.909 38.5246 884.874 40.336 878.594 40.336V41.336V42.336C885.285 42.336 890.831 40.3928 895.142 36.4411L894.466 35.704ZM938.33 181.624L937.824 182.487L937.836 182.493L938.33 181.624ZM914.778 157.56L913.902 158.042L913.908 158.053L914.778 157.56ZM914.778 87.416L913.908 86.9229L913.902 86.9341L914.778 87.416ZM938.33 63.608L938.825 64.4772L938.836 64.4707L938.33 63.608ZM1005.4 63.608L1004.9 64.4708L1004.91 64.4772L1005.4 63.608ZM1028.7 87.416L1027.82 87.8979L1027.83 87.9067L1027.83 87.9153L1028.7 87.416ZM1028.7 157.816L1029.56 158.315L1029.57 158.309L1028.7 157.816ZM1005.15 181.624L1005.65 182.489L1005.65 182.487L1005.15 181.624ZM986.458 155L985.919 154.158L985.919 154.158L986.458 155ZM996.698 142.712L995.804 142.265L995.798 142.276L995.793 142.288L996.698 142.712ZM996.954 102.264L996.049 102.688L996.049 102.688L996.954 102.264ZM986.458 89.976L985.919 90.8183L985.926 90.823L985.934 90.8277L986.458 89.976ZM957.274 89.976L957.798 90.8277L957.798 90.8277L957.274 89.976ZM946.778 102.264L945.873 101.84L945.873 101.84L946.778 102.264ZM957.018 155L956.479 155.842L956.486 155.847L956.494 155.852L957.018 155ZM971.61 190.072V189.072C959.481 189.072 948.561 186.294 938.825 180.755L938.33 181.624L937.836 182.493C947.897 188.218 959.163 191.072 971.61 191.072V190.072ZM938.33 181.624L938.836 180.761C929.093 175.05 921.366 167.158 915.648 157.067L914.778 157.56L913.908 158.053C919.795 168.442 927.77 176.593 937.824 182.487L938.33 181.624ZM914.778 157.56L915.654 157.078C910.112 147.001 907.33 135.565 907.33 122.744H906.33H905.33C905.33 135.864 908.18 147.639 913.902 158.042L914.778 157.56ZM906.33 122.744H907.33C907.33 109.577 910.114 97.9708 915.654 87.8979L914.778 87.416L913.902 86.9341C908.178 97.3412 905.33 109.287 905.33 122.744H906.33ZM914.778 87.416L915.648 87.909C921.365 77.8205 929.088 70.0169 938.825 64.4772L938.33 63.608L937.836 62.7388C927.775 68.4631 919.797 76.5315 913.908 86.923L914.778 87.416ZM938.33 63.608L938.836 64.4707C948.568 58.7656 959.569 55.904 971.866 55.904V54.904V53.904C959.245 53.904 947.889 56.8451 937.824 62.7453L938.33 63.608ZM971.866 54.904V55.904C984.163 55.904 995.164 58.7656 1004.9 64.4707L1005.4 63.608L1005.91 62.7453C995.843 56.8451 984.487 53.904 971.866 53.904V54.904ZM1005.4 63.608L1004.91 64.4772C1014.64 70.0153 1022.28 77.8153 1027.82 87.8979L1028.7 87.416L1029.57 86.9341C1023.86 76.5367 1015.96 68.4647 1005.9 62.7388L1005.4 63.608ZM1028.7 87.416L1027.83 87.9153C1033.53 97.8118 1036.4 109.325 1036.4 122.488H1037.4H1038.4C1038.4 109.027 1035.47 97.1588 1029.56 86.9167L1028.7 87.416ZM1037.4 122.488H1036.4C1036.4 135.65 1033.53 147.252 1027.83 157.323L1028.7 157.816L1029.57 158.309C1035.47 147.9 1038.4 135.95 1038.4 122.488H1037.4ZM1028.7 157.816L1027.83 157.317C1022.11 167.238 1014.39 175.048 1004.64 180.761L1005.15 181.624L1005.65 182.487C1015.7 176.595 1023.68 168.533 1029.56 158.315L1028.7 157.816ZM1005.15 181.624L1004.64 180.759C995.087 186.292 984.086 189.072 971.61 189.072V190.072V191.072C984.393 191.072 995.749 188.22 1005.65 182.489L1005.15 181.624ZM971.61 159.096V160.096C977.411 160.096 982.552 158.687 986.997 155.842L986.458 155L985.919 154.158C981.831 156.774 977.073 158.096 971.61 158.096V159.096ZM986.458 155L986.997 155.842C991.451 152.992 994.979 148.736 997.603 143.136L996.698 142.712L995.793 142.288C993.297 147.611 989.998 151.547 985.919 154.158L986.458 155ZM996.698 142.712L997.592 143.159C1000.41 137.522 1001.79 130.618 1001.79 122.488H1000.79H999.794C999.794 130.401 998.447 136.979 995.804 142.265L996.698 142.712ZM1000.79 122.488H1001.79C1001.79 114.366 1000.5 107.47 997.859 101.84L996.954 102.264L996.049 102.688C998.529 107.981 999.794 114.567 999.794 122.488H1000.79ZM996.954 102.264L997.859 101.84C995.23 96.2302 991.61 91.9725 986.982 89.1243L986.458 89.976L985.934 90.8277C990.18 93.4408 993.558 97.3751 996.049 102.688L996.954 102.264ZM986.458 89.976L986.997 89.1337C982.557 86.292 977.503 84.88 971.866 84.88V85.88V86.88C977.152 86.88 981.826 88.1987 985.919 90.8183L986.458 89.976ZM971.866 85.88V84.88C966.393 84.88 961.347 86.2951 956.75 89.1243L957.274 89.976L957.798 90.8277C962.075 88.1955 966.757 86.88 971.866 86.88V85.88ZM957.274 89.976L956.75 89.1243C952.122 91.9725 948.502 96.2302 945.873 101.84L946.778 102.264L947.683 102.688C950.174 97.3751 953.552 93.4408 957.798 90.8277L957.274 89.976ZM946.778 102.264L945.873 101.84C943.233 107.47 941.938 114.366 941.938 122.488H942.938H943.938C943.938 114.567 945.203 107.981 947.683 102.688L946.778 102.264ZM942.938 122.488H941.938C941.938 130.61 943.233 137.506 945.873 143.136L946.778 142.712L947.683 142.288C945.203 136.995 943.938 130.409 943.938 122.488H942.938ZM946.778 142.712L945.873 143.136C948.497 148.736 952.025 152.992 956.479 155.842L957.018 155L957.557 154.158C953.478 151.547 950.179 147.611 947.683 142.288L946.778 142.712ZM957.018 155L956.494 155.852C961.091 158.681 966.137 160.096 971.61 160.096V159.096V158.096C966.501 158.096 961.819 156.78 957.542 154.148L957.018 155Z" fill="white" mask="url(#path-1-outside-1_99_2)"/>
<rect x="162.5" y="70.5" width="243" height="100" rx="50" stroke="white" stroke-width="33"/>
</svg>
